<svg xmlns="http://www.w3.org/2000/svg" width="800" height="800" viewBox="0 0 800 800">
<path d="M -22,105 L -4,91 L 13,63 L 26,104 L 38,134 L 61,93 L 71,59 L 87,43 L 97,69 L 113,107 L 136,90 L 160,120 L 178,75 L 193,119 L 216,117 L 234,91 L 250,89 L 263,55 L 285,22 L 306,21 L 324,20 L 348,43 L 361,46 L 373,71 L 392,106 L 413,134 L 429,179 L 441,139 L 458,131 L 470,115 L 483,118 L 501,131 L 522,106 L 543,106 L 559,146 L 577,190 L 589,222 L 604,245 L 621,220 L 645,223 L 663,259 L 680,301 L 700,263 L 717,222 L 737,228 L 755,191 L 771,218 L 791,200 L 816,205 L 840,178 L 840,800 L -22,800 Z" fill="white" fill-opacity="0.024"/>
<path d="M -22,105 L -4,91 L 13,63 L 26,104 L 38,134 L 61,93 L 71,59 L 87,43 L 97,69 L 113,107 L 136,90 L 160,120 L 178,75 L 193,119 L 216,117 L 234,91 L 250,89 L 263,55 L 285,22 L 306,21 L 324,20 L 348,43 L 361,46 L 373,71 L 392,106 L 413,134 L 429,179 L 441,139 L 458,131 L 470,115 L 483,118 L 501,131 L 522,106 L 543,106 L 559,146 L 577,190 L 589,222 L 604,245 L 621,220 L 645,223 L 663,259 L 680,301 L 700,263 L 717,222 L 737,228 L 755,191 L 771,218 L 791,200 L 816,205 L 840,178" fill="none" stroke="white" stroke-opacity="0.08" stroke-width="1.5"/>
<path d="M 93,631 L 111,660 L 134,689 L 156,690 L 173,662 L 198,628 L 209,597 L 223,632 L 238,674 L 261,705 L 273,709 L 295,740 L 319,762 L 337,780 L 347,780 L 360,780 L 378,780 L 398,749 L 417,759 L 432,772 L 442,760 L 457,779 L 470,780 L 489,780 L 505,754 L 526,729 L 536,760 L 556,777 L 566,746 L 587,740 L 604,702 L 621,729 L 633,694 L 658,657 L 672,628 L 697,653 L 712,641 L 735,623 L 751,617 L 773,657 L 794,668 L 818,638 L 835,621 L 847,619 L 847,800 L 93,800 Z" fill="white" fill-opacity="0.031"/>
<path d="M 93,631 L 111,660 L 134,689 L 156,690 L 173,662 L 198,628 L 209,597 L 223,632 L 238,674 L 261,705 L 273,709 L 295,740 L 319,762 L 337,780 L 347,780 L 360,780 L 378,780 L 398,749 L 417,759 L 432,772 L 442,760 L 457,779 L 470,780 L 489,780 L 505,754 L 526,729 L 536,760 L 556,777 L 566,746 L 587,740 L 604,702 L 621,729 L 633,694 L 658,657 L 672,628 L 697,653 L 712,641 L 735,623 L 751,617 L 773,657 L 794,668 L 818,638 L 835,621 L 847,619" fill="none" stroke="white" stroke-opacity="0.104" stroke-width="1.5"/>
<path d="M 100,305 L 110,269 L 121,253 L 133,212 L 153,176 L 170,166 L 195,148 L 209,176 L 234,162 L 259,169 L 275,136 L 288,175 L 311,175 L 334,182 L 358,143 L 371,105 L 393,103 L 406,89 L 422,68 L 446,40 L 469,20 L 487,34 L 504,20 L 528,45 L 541,20 L 551,20 L 568,20 L 591,37 L 616,20 L 638,20 L 653,23 L 663,27 L 681,40 L 700,49 L 725,23 L 741,20 L 757,20 L 768,20 L 779,20 L 804,39 L 819,20 L 831,20 L 843,51 L 843,800 L 100,800 Z" fill="white" fill-opacity="0.039"/>
<path d="M 100,305 L 110,269 L 121,253 L 133,212 L 153,176 L 170,166 L 195,148 L 209,176 L 234,162 L 259,169 L 275,136 L 288,175 L 311,175 L 334,182 L 358,143 L 371,105 L 393,103 L 406,89 L 422,68 L 446,40 L 469,20 L 487,34 L 504,20 L 528,45 L 541,20 L 551,20 L 568,20 L 591,37 L 616,20 L 638,20 L 653,23 L 663,27 L 681,40 L 700,49 L 725,23 L 741,20 L 757,20 L 768,20 L 779,20 L 804,39 L 819,20 L 831,20 L 843,51" fill="none" stroke="white" stroke-opacity="0.129" stroke-width="1.5"/>
<path d="M 53,202 L 70,231 L 81,265 L 93,273 L 113,261 L 129,301 L 149,286 L 167,291 L 181,331 L 200,344 L 220,308 L 230,321 L 243,285 L 259,304 L 277,275 L 298,238 L 315,240 L 334,215 L 358,239 L 377,272 L 387,312 L 406,351 L 419,323 L 437,292 L 450,317 L 464,306 L 483,338 L 499,336 L 515,378 L 533,397 L 558,384 L 569,350 L 592,340 L 603,295 L 623,266 L 641,241 L 665,266 L 688,292 L 698,261 L 710,304 L 724,328 L 735,330 L 749,340 L 763,300 L 782,301 L 793,301 L 809,343 L 826,383 L 839,383 L 839,800 L 53,800 Z" fill="white" fill-opacity="0.036"/>
<path d="M 53,202 L 70,231 L 81,265 L 93,273 L 113,261 L 129,301 L 149,286 L 167,291 L 181,331 L 200,344 L 220,308 L 230,321 L 243,285 L 259,304 L 277,275 L 298,238 L 315,240 L 334,215 L 358,239 L 377,272 L 387,312 L 406,351 L 419,323 L 437,292 L 450,317 L 464,306 L 483,338 L 499,336 L 515,378 L 533,397 L 558,384 L 569,350 L 592,340 L 603,295 L 623,266 L 641,241 L 665,266 L 688,292 L 698,261 L 710,304 L 724,328 L 735,330 L 749,340 L 763,300 L 782,301 L 793,301 L 809,343 L 826,383 L 839,383" fill="none" stroke="white" stroke-opacity="0.12" stroke-width="1.5"/>
<path d="M 10,246 L 25,253 L 35,230 L 55,237 L 72,226 L 87,270 L 100,273 L 111,288 L 128,268 L 152,267 L 171,251 L 188,209 L 204,215 L 224,205 L 236,195 L 257,232 L 279,273 L 299,231 L 312,219 L 327,248 L 345,207 L 358,238 L 381,237 L 401,247 L 414,251 L 430,238 L 441,283 L 464,238 L 480,239 L 503,202 L 523,236 L 543,275 L 556,268 L 575,308 L 598,304 L 620,348 L 639,373 L 653,352 L 676,392 L 698,433 L 713,466 L 732,472 L 742,465 L 761,446 L 784,475 L 804,489 L 828,500 L 844,520 L 844,800 L 10,800 Z" fill="white" fill-opacity="0.034"/>
<path d="M 10,246 L 25,253 L 35,230 L 55,237 L 72,226 L 87,270 L 100,273 L 111,288 L 128,268 L 152,267 L 171,251 L 188,209 L 204,215 L 224,205 L 236,195 L 257,232 L 279,273 L 299,231 L 312,219 L 327,248 L 345,207 L 358,238 L 381,237 L 401,247 L 414,251 L 430,238 L 441,283 L 464,238 L 480,239 L 503,202 L 523,236 L 543,275 L 556,268 L 575,308 L 598,304 L 620,348 L 639,373 L 653,352 L 676,392 L 698,433 L 713,466 L 732,472 L 742,465 L 761,446 L 784,475 L 804,489 L 828,500 L 844,520" fill="none" stroke="white" stroke-opacity="0.113" stroke-width="1.5"/>
<path d="M 22,607 L 42,573 L 59,614 L 78,597 L 94,570 L 104,530 L 121,545 L 133,558 L 156,593 L 172,637 L 194,655 L 216,641 L 230,679 L 240,647 L 263,630 L 278,674 L 302,635 L 319,605 L 343,577 L 367,617 L 387,628 L 410,653 L 434,628 L 459,640 L 477,626 L 495,647 L 520,682 L 537,672 L 561,636 L 580,621 L 598,618 L 618,642 L 630,614 L 644,598 L 666,641 L 680,686 L 696,649 L 719,656 L 739,680 L 763,688 L 774,669 L 797,673 L 807,701 L 829,717 L 839,717 L 839,800 L 22,800 Z" fill="white" fill-opacity="0.038"/>
<path d="M 22,607 L 42,573 L 59,614 L 78,597 L 94,570 L 104,530 L 121,545 L 133,558 L 156,593 L 172,637 L 194,655 L 216,641 L 230,679 L 240,647 L 263,630 L 278,674 L 302,635 L 319,605 L 343,577 L 367,617 L 387,628 L 410,653 L 434,628 L 459,640 L 477,626 L 495,647 L 520,682 L 537,672 L 561,636 L 580,621 L 598,618 L 618,642 L 630,614 L 644,598 L 666,641 L 680,686 L 696,649 L 719,656 L 739,680 L 763,688 L 774,669 L 797,673 L 807,701 L 829,717 L 839,717" fill="none" stroke="white" stroke-opacity="0.128" stroke-width="1.5"/>
<path d="M 57,631 L 74,648 L 91,637 L 114,654 L 124,658 L 144,698 L 166,674 L 190,645 L 200,650 L 210,615 L 233,587 L 257,565 L 268,553 L 290,549 L 306,562 L 326,560 L 348,550 L 371,537 L 383,552 L 393,576 L 404,575 L 421,613 L 433,651 L 444,609 L 461,589 L 471,623 L 485,608 L 499,623 L 512,650 L 528,664 L 546,666 L 561,698 L 574,673 L 593,641 L 603,635 L 625,640 L 641,604 L 658,572 L 677,614 L 690,641 L 701,640 L 724,679 L 745,642 L 765,598 L 788,615 L 801,625 L 822,661 L 846,706 L 846,800 L 57,800 Z" fill="white" fill-opacity="0.022"/>
<path d="M 57,631 L 74,648 L 91,637 L 114,654 L 124,658 L 144,698 L 166,674 L 190,645 L 200,650 L 210,615 L 233,587 L 257,565 L 268,553 L 290,549 L 306,562 L 326,560 L 348,550 L 371,537 L 383,552 L 393,576 L 404,575 L 421,613 L 433,651 L 444,609 L 461,589 L 471,623 L 485,608 L 499,623 L 512,650 L 528,664 L 546,666 L 561,698 L 574,673 L 593,641 L 603,635 L 625,640 L 641,604 L 658,572 L 677,614 L 690,641 L 701,640 L 724,679 L 745,642 L 765,598 L 788,615 L 801,625 L 822,661 L 846,706" fill="none" stroke="white" stroke-opacity="0.074" stroke-width="1.5"/>
<path d="M 83,356 L 108,370 L 131,400 L 149,396 L 166,362 L 184,374 L 201,388 L 223,386 L 233,404 L 253,382 L 278,364 L 299,352 L 319,342 L 337,368 L 347,389 L 363,354 L 380,361 L 405,387 L 422,430 L 447,467 L 472,479 L 482,445 L 501,428 L 523,471 L 540,465 L 561,480 L 582,489 L 602,489 L 626,478 L 645,465 L 662,435 L 678,430 L 691,453 L 706,432 L 722,448 L 740,478 L 759,445 L 775,437 L 792,438 L 807,431 L 817,476 L 831,466 L 842,427 L 842,800 L 83,800 Z" fill="white" fill-opacity="0.041"/>
<path d="M 83,356 L 108,370 L 131,400 L 149,396 L 166,362 L 184,374 L 201,388 L 223,386 L 233,404 L 253,382 L 278,364 L 299,352 L 319,342 L 337,368 L 347,389 L 363,354 L 380,361 L 405,387 L 422,430 L 447,467 L 472,479 L 482,445 L 501,428 L 523,471 L 540,465 L 561,480 L 582,489 L 602,489 L 626,478 L 645,465 L 662,435 L 678,430 L 691,453 L 706,432 L 722,448 L 740,478 L 759,445 L 775,437 L 792,438 L 807,431 L 817,476 L 831,466 L 842,427" fill="none" stroke="white" stroke-opacity="0.136" stroke-width="1.5"/>
<path d="M 75,185 L 85,213 L 104,228 L 129,239 L 149,217 L 160,204 L 185,173 L 197,179 L 222,143 L 233,117 L 247,144 L 266,109 L 283,79 L 306,111 L 323,132 L 345,144 L 369,137 L 392,131 L 403,164 L 416,145 L 432,133 L 444,108 L 461,85 L 473,60 L 483,67 L 507,110 L 532,102 L 543,86 L 562,131 L 581,175 L 605,139 L 622,127 L 638,136 L 651,160 L 668,197 L 682,186 L 696,150 L 707,126 L 726,157 L 745,168 L 758,182 L 777,226 L 799,215 L 824,226 L 836,257 L 847,267 L 847,800 L 75,800 Z" fill="white" fill-opacity="0.024"/>
<path d="M 75,185 L 85,213 L 104,228 L 129,239 L 149,217 L 160,204 L 185,173 L 197,179 L 222,143 L 233,117 L 247,144 L 266,109 L 283,79 L 306,111 L 323,132 L 345,144 L 369,137 L 392,131 L 403,164 L 416,145 L 432,133 L 444,108 L 461,85 L 473,60 L 483,67 L 507,110 L 532,102 L 543,86 L 562,131 L 581,175 L 605,139 L 622,127 L 638,136 L 651,160 L 668,197 L 682,186 L 696,150 L 707,126 L 726,157 L 745,168 L 758,182 L 777,226 L 799,215 L 824,226 L 836,257 L 847,267" fill="none" stroke="white" stroke-opacity="0.08" stroke-width="1.5"/>
<path d="M -27,314 L -17,355 L 1,383 L 12,360 L 37,381 L 61,371 L 76,400 L 99,436 L 124,402 L 149,401 L 172,398 L 192,438 L 205,413 L 225,420 L 250,411 L 272,436 L 283,449 L 295,444 L 313,440 L 326,446 L 336,485 L 360,492 L 371,471 L 392,505 L 417,540 L 441,501 L 457,490 L 471,481 L 495,525 L 520,495 L 530,530 L 547,575 L 562,569 L 572,594 L 595,560 L 612,529 L 636,499 L 650,517 L 669,537 L 687,545 L 712,560 L 729,573 L 743,577 L 759,608 L 773,571 L 791,579 L 811,598 L 829,553 L 848,546 L 848,800 L -27,800 Z" fill="white" fill-opacity="0.029"/>
<path d="M -27,314 L -17,355 L 1,383 L 12,360 L 37,381 L 61,371 L 76,400 L 99,436 L 124,402 L 149,401 L 172,398 L 192,438 L 205,413 L 225,420 L 250,411 L 272,436 L 283,449 L 295,444 L 313,440 L 326,446 L 336,485 L 360,492 L 371,471 L 392,505 L 417,540 L 441,501 L 457,490 L 471,481 L 495,525 L 520,495 L 530,530 L 547,575 L 562,569 L 572,594 L 595,560 L 612,529 L 636,499 L 650,517 L 669,537 L 687,545 L 712,560 L 729,573 L 743,577 L 759,608 L 773,571 L 791,579 L 811,598 L 829,553 L 848,546" fill="none" stroke="white" stroke-opacity="0.096" stroke-width="1.5"/>
<text x="500" y="363" font-size="11" fill="white" fill-opacity="0.101" transform="rotate(8,500,363)" font-family="sans-serif">₩</text>
<text x="334" y="203" font-size="9" fill="white" fill-opacity="0.103" transform="rotate(49,334,203)" font-family="sans-serif">€</text>
<text x="425" y="54" font-size="11" fill="white" fill-opacity="0.122" transform="rotate(-1,425,54)" font-family="sans-serif">₩</text>
<text x="684" y="677" font-size="8" fill="white" fill-opacity="0.094" transform="rotate(-34,684,677)" font-family="sans-serif">₹</text>
<text x="519" y="614" font-size="11" fill="white" fill-opacity="0.136" transform="rotate(-38,519,614)" font-family="sans-serif">₹</text>
<text x="543" y="477" font-size="6" fill="white" fill-opacity="0.119" transform="rotate(33,543,477)" font-family="sans-serif">₿</text>
<text x="163" y="86" font-size="13" fill="white" fill-opacity="0.126" transform="rotate(-7,163,86)" font-family="sans-serif">€</text>
<text x="643" y="719" font-size="12" fill="white" fill-opacity="0.111" transform="rotate(36,643,719)" font-family="sans-serif">¥</text>
<text x="551" y="399" font-size="11" fill="white" fill-opacity="0.109" transform="rotate(19,551,399)" font-family="sans-serif">₹</text>
<text x="41" y="642" font-size="7" fill="white" fill-opacity="0.066" transform="rotate(-21,41,642)" font-family="sans-serif">£</text>
<text x="769" y="102" font-size="12" fill="white" fill-opacity="0.148" transform="rotate(6,769,102)" font-family="sans-serif">₹</text>
<text x="175" y="720" font-size="10" fill="white" fill-opacity="0.139" transform="rotate(-9,175,720)" font-family="sans-serif">₹</text>
<text x="62" y="310" font-size="11" fill="white" fill-opacity="0.081" transform="rotate(-19,62,310)" font-family="sans-serif">₹</text>
<text x="548" y="431" font-size="8" fill="white" fill-opacity="0.059" transform="rotate(28,548,431)" font-family="sans-serif">₹</text>
<text x="396" y="644" font-size="9" fill="white" fill-opacity="0.095" transform="rotate(-21,396,644)" font-family="sans-serif">₹</text>
<text x="477" y="663" font-size="10" fill="white" fill-opacity="0.091" transform="rotate(9,477,663)" font-family="sans-serif">₹</text>
<text x="299" y="703" font-size="14" fill="white" fill-opacity="0.057" transform="rotate(-6,299,703)" font-family="sans-serif">₹</text>
<text x="606" y="316" font-size="12" fill="white" fill-opacity="0.116" transform="rotate(-12,606,316)" font-family="sans-serif">₹</text>
<text x="208" y="403" font-size="13" fill="white" fill-opacity="0.052" transform="rotate(23,208,403)" font-family="sans-serif">₩</text>
<text x="372" y="598" font-size="10" fill="white" fill-opacity="0.149" transform="rotate(-48,372,598)" font-family="sans-serif">£</text>
<text x="679" y="415" font-size="10" fill="white" fill-opacity="0.041" transform="rotate(27,679,415)" font-family="sans-serif">₹</text>
<text x="768" y="518" font-size="10" fill="white" fill-opacity="0.125" transform="rotate(27,768,518)" font-family="sans-serif">€</text>
<text x="365" y="234" font-size="9" fill="white" fill-opacity="0.108" transform="rotate(30,365,234)" font-family="sans-serif">₹</text>
<text x="104" y="652" font-size="6" fill="white" fill-opacity="0.074" transform="rotate(-46,104,652)" font-family="sans-serif">₹</text>
<text x="598" y="383" font-size="8" fill="white" fill-opacity="0.05" transform="rotate(-9,598,383)" font-family="sans-serif">£</text>
<text x="770" y="435" font-size="8" fill="white" fill-opacity="0.062" transform="rotate(17,770,435)" font-family="sans-serif">¢</text>
<text x="518" y="289" font-size="8" fill="white" fill-opacity="0.068" transform="rotate(-13,518,289)" font-family="sans-serif">₹</text>
<text x="769" y="356" font-size="7" fill="white" fill-opacity="0.092" transform="rotate(-32,769,356)" font-family="sans-serif">₹</text>
<text x="777" y="241" font-size="12" fill="white" fill-opacity="0.146" transform="rotate(-39,777,241)" font-family="sans-serif">¢</text>
<text x="409" y="24" font-size="10" fill="white" fill-opacity="0.099" transform="rotate(-3,409,24)" font-family="sans-serif">₹</text>
<text x="693" y="776" font-size="10" fill="white" fill-opacity="0.104" transform="rotate(-37,693,776)" font-family="sans-serif">¢</text>
<text x="696" y="249" font-size="13" fill="white" fill-opacity="0.043" transform="rotate(28,696,249)" font-family="sans-serif">¥</text>
<text x="231" y="673" font-size="7" fill="white" fill-opacity="0.11" transform="rotate(39,231,673)" font-family="sans-serif">₹</text>
<text x="314" y="674" font-size="12" fill="white" fill-opacity="0.053" transform="rotate(-46,314,674)" font-family="sans-serif">₹</text>
<text x="316" y="514" font-size="7" fill="white" fill-opacity="0.051" transform="rotate(-1,316,514)" font-family="sans-serif">₹</text>
<text x="469" y="389" font-size="14" fill="white" fill-opacity="0.086" transform="rotate(3,469,389)" font-family="sans-serif">₹</text>
<text x="675" y="111" font-size="13" fill="white" fill-opacity="0.108" transform="rotate(-46,675,111)" font-family="sans-serif">€</text>
<text x="711" y="389" font-size="9" fill="white" fill-opacity="0.089" transform="rotate(-4,711,389)" font-family="sans-serif">€</text>
<text x="106" y="712" font-size="11" fill="white" fill-opacity="0.1" transform="rotate(-43,106,712)" font-family="sans-serif">¢</text>
<text x="412" y="292" font-size="9" fill="white" fill-opacity="0.147" transform="rotate(-39,412,292)" font-family="sans-serif">₹</text>
<text x="683" y="227" font-size="6" fill="white" fill-opacity="0.046" transform="rotate(-19,683,227)" font-family="sans-serif">¥</text>
<text x="133" y="588" font-size="9" fill="white" fill-opacity="0.048" transform="rotate(25,133,588)" font-family="sans-serif">$</text>
<text x="226" y="248" font-size="11" fill="white" fill-opacity="0.125" transform="rotate(-15,226,248)" font-family="sans-serif">₹</text>
<text x="153" y="143" font-size="14" fill="white" fill-opacity="0.068" transform="rotate(-36,153,143)" font-family="sans-serif">$</text>
<text x="681" y="36" font-size="8" fill="white" fill-opacity="0.042" transform="rotate(25,681,36)" font-family="sans-serif">€</text>
<text x="336" y="26" font-size="8" fill="white" fill-opacity="0.069" transform="rotate(44,336,26)" font-family="sans-serif">₹</text>
<text x="436" y="548" font-size="7" fill="white" fill-opacity="0.122" transform="rotate(7,436,548)" font-family="sans-serif">₹</text>
<text x="375" y="535" font-size="7" fill="white" fill-opacity="0.09" transform="rotate(28,375,535)" font-family="sans-serif">€</text>
<text x="49" y="754" font-size="14" fill="white" fill-opacity="0.073" transform="rotate(-43,49,754)" font-family="sans-serif">₹</text>
<text x="495" y="421" font-size="12" fill="white" fill-opacity="0.115" transform="rotate(41,495,421)" font-family="sans-serif">₹</text>
<text x="459" y="85" font-size="7" fill="white" fill-opacity="0.075" transform="rotate(-42,459,85)" font-family="sans-serif">₹</text>
<text x="134" y="291" font-size="14" fill="white" fill-opacity="0.118" transform="rotate(26,134,291)" font-family="sans-serif">₩</text>
<text x="548" y="311" font-size="13" fill="white" fill-opacity="0.096" transform="rotate(-38,548,311)" font-family="sans-serif">₿</text>
<text x="723" y="127" font-size="14" fill="white" fill-opacity="0.119" transform="rotate(5,723,127)" font-family="sans-serif">$</text>
<text x="467" y="243" font-size="12" fill="white" fill-opacity="0.077" transform="rotate(1,467,243)" font-family="sans-serif">₹</text>
<text x="430" y="757" font-size="7" fill="white" fill-opacity="0.074" transform="rotate(35,430,757)" font-family="sans-serif">¥</text>
<text x="266" y="393" font-size="8" fill="white" fill-opacity="0.116" transform="rotate(-42,266,393)" font-family="sans-serif">₹</text>
<text x="98" y="97" font-size="7" fill="white" fill-opacity="0.088" transform="rotate(-34,98,97)" font-family="sans-serif">¢</text>
<text x="574" y="71" font-size="14" fill="white" fill-opacity="0.102" transform="rotate(2,574,71)" font-family="sans-serif">₹</text>
<text x="367" y="691" font-size="12" fill="white" fill-opacity="0.135" transform="rotate(-14,367,691)" font-family="sans-serif">₹</text>
<text x="619" y="329" font-size="11" fill="white" fill-opacity="0.051" transform="rotate(-31,619,329)" font-family="sans-serif">$</text>
<text x="677" y="503" font-size="9" fill="white" fill-opacity="0.133" transform="rotate(21,677,503)" font-family="sans-serif">¢</text>
<text x="381" y="127" font-size="10" fill="white" fill-opacity="0.103" transform="rotate(21,381,127)" font-family="sans-serif">₿</text>
<text x="641" y="638" font-size="14" fill="white" fill-opacity="0.043" transform="rotate(-47,641,638)" font-family="sans-serif">€</text>
<text x="189" y="289" font-size="10" fill="white" fill-opacity="0.141" transform="rotate(-50,189,289)" font-family="sans-serif">¢</text>
<text x="190" y="156" font-size="12" fill="white" fill-opacity="0.048" transform="rotate(-39,190,156)" font-family="sans-serif">₹</text>
<text x="769" y="553" font-size="9" fill="white" fill-opacity="0.081" transform="rotate(-7,769,553)" font-family="sans-serif">₹</text>
<text x="166" y="388" font-size="10" fill="white" fill-opacity="0.119" transform="rotate(-44,166,388)" font-family="sans-serif">₹</text>
<text x="164" y="171" font-size="6" fill="white" fill-opacity="0.114" transform="rotate(6,164,171)" font-family="sans-serif">€</text>
<text x="682" y="444" font-size="13" fill="white" fill-opacity="0.107" transform="rotate(-16,682,444)" font-family="sans-serif">₿</text>
<text x="225" y="783" font-size="14" fill="white" fill-opacity="0.053" transform="rotate(-36,225,783)" font-family="sans-serif">₿</text>
<text x="295" y="704" font-size="13" fill="white" fill-opacity="0.098" transform="rotate(-45,295,704)" font-family="sans-serif">£</text>
<text x="230" y="414" font-size="6" fill="white" fill-opacity="0.041" transform="rotate(-23,230,414)" font-family="sans-serif">£</text>
<text x="145" y="271" font-size="10" fill="white" fill-opacity="0.076" transform="rotate(13,145,271)" font-family="sans-serif">₹</text>
<text x="769" y="450" font-size="8" fill="white" fill-opacity="0.054" transform="rotate(14,769,450)" font-family="sans-serif">€</text>
<text x="577" y="694" font-size="11" fill="white" fill-opacity="0.048" transform="rotate(5,577,694)" font-family="sans-serif">₹</text>
<text x="24" y="480" font-size="7" fill="white" fill-opacity="0.135" transform="rotate(23,24,480)" font-family="sans-serif">₿</text>
<text x="419" y="736" font-size="12" fill="white" fill-opacity="0.072" transform="rotate(-48,419,736)" font-family="sans-serif">₩</text>
<text x="337" y="185" font-size="13" fill="white" fill-opacity="0.132" transform="rotate(-39,337,185)" font-family="sans-serif">¢</text>
<text x="452" y="118" font-size="9" fill="white" fill-opacity="0.088" transform="rotate(17,452,118)" font-family="sans-serif">₩</text>
<text x="85" y="415" font-size="10" fill="white" fill-opacity="0.122" transform="rotate(-8,85,415)" font-family="sans-serif">€</text>
<text x="177" y="88" font-size="14" fill="white" fill-opacity="0.11" transform="rotate(49,177,88)" font-family="sans-serif">$</text>
<text x="362" y="369" font-size="8" fill="white" fill-opacity="0.066" transform="rotate(-18,362,369)" font-family="sans-serif">₹</text>
<text x="207" y="187" font-size="8" fill="white" fill-opacity="0.124" transform="rotate(-28,207,187)" font-family="sans-serif">₹</text>
<text x="648" y="515" font-size="13" fill="white" fill-opacity="0.123" transform="rotate(37,648,515)" font-family="sans-serif">₹</text>
<text x="583" y="668" font-size="11" fill="white" fill-opacity="0.135" transform="rotate(-31,583,668)" font-family="sans-serif">¥</text>
<text x="455" y="79" font-size="13" fill="white" fill-opacity="0.089" transform="rotate(-15,455,79)" font-family="sans-serif">£</text>
<text x="610" y="67" font-size="11" fill="white" fill-opacity="0.096" transform="rotate(9,610,67)" font-family="sans-serif">£</text>
<text x="467" y="48" font-size="6" fill="white" fill-opacity="0.081" transform="rotate(-41,467,48)" font-family="sans-serif">£</text>
<text x="665" y="102" font-size="14" fill="white" fill-opacity="0.082" transform="rotate(7,665,102)" font-family="sans-serif">₹</text>
<text x="590" y="677" font-size="9" fill="white" fill-opacity="0.075" transform="rotate(14,590,677)" font-family="sans-serif">₹</text>
<text x="159" y="73" font-size="13" fill="white" fill-opacity="0.051" transform="rotate(41,159,73)" font-family="sans-serif">¥</text>
<text x="91" y="526" font-size="8" fill="white" fill-opacity="0.044" transform="rotate(6,91,526)" font-family="sans-serif">₹</text>
<text x="541" y="545" font-size="8" fill="white" fill-opacity="0.08" transform="rotate(-1,541,545)" font-family="sans-serif">£</text>
<text x="423" y="356" font-size="6" fill="white" fill-opacity="0.127" transform="rotate(-42,423,356)" font-family="sans-serif">¥</text>
<text x="342" y="106" font-size="14" fill="white" fill-opacity="0.115" transform="rotate(-18,342,106)" font-family="sans-serif">£</text>
<text x="746" y="682" font-size="8" fill="white" fill-opacity="0.077" transform="rotate(-6,746,682)" font-family="sans-serif">₹</text>
<text x="322" y="681" font-size="12" fill="white" fill-opacity="0.054" transform="rotate(-11,322,681)" font-family="sans-serif">₹</text>
<text x="577" y="395" font-size="11" fill="white" fill-opacity="0.129" transform="rotate(32,577,395)" font-family="sans-serif">₹</text>
<text x="691" y="443" font-size="14" fill="white" fill-opacity="0.08" transform="rotate(-11,691,443)" font-family="sans-serif">¢</text>
<text x="189" y="229" font-size="8" fill="white" fill-opacity="0.077" transform="rotate(-18,189,229)" font-family="monospace">~</text>
<text x="236" y="150" font-size="7" fill="white" fill-opacity="0.034" transform="rotate(2,236,150)" font-family="monospace">+</text>
<text x="557" y="766" font-size="10" fill="white" fill-opacity="0.032" transform="rotate(26,557,766)" font-family="monospace">=</text>
<text x="637" y="144" font-size="10" fill="white" fill-opacity="0.049" transform="rotate(-19,637,144)" font-family="monospace">-</text>
<text x="714" y="649" font-size="12" fill="white" fill-opacity="0.075" transform="rotate(-2,714,649)" font-family="monospace">*</text>
<text x="49" y="430" font-size="8" fill="white" fill-opacity="0.064" transform="rotate(-2,49,430)" font-family="monospace">-</text>
<text x="630" y="301" font-size="12" fill="white" fill-opacity="0.067" transform="rotate(-16,630,301)" font-family="monospace">~</text>
<text x="551" y="254" font-size="8" fill="white" fill-opacity="0.078" transform="rotate(27,551,254)" font-family="monospace">~</text>
<text x="203" y="386" font-size="11" fill="white" fill-opacity="0.077" transform="rotate(-1,203,386)" font-family="monospace">~</text>
<text x="293" y="401" font-size="10" fill="white" fill-opacity="0.056" transform="rotate(22,293,401)" font-family="monospace">-</text>
<text x="209" y="629" font-size="7" fill="white" fill-opacity="0.074" transform="rotate(11,209,629)" font-family="monospace">+</text>
<text x="497" y="390" font-size="10" fill="white" fill-opacity="0.077" transform="rotate(24,497,390)" font-family="monospace">*</text>
<text x="533" y="137" font-size="8" fill="white" fill-opacity="0.034" transform="rotate(-13,533,137)" font-family="monospace">-</text>
<text x="465" y="535" font-size="7" fill="white" fill-opacity="0.072" transform="rotate(30,465,535)" font-family="monospace">+</text>
<text x="232" y="471" font-size="8" fill="white" fill-opacity="0.077" transform="rotate(-27,232,471)" font-family="monospace">~</text>
<text x="410" y="524" font-size="8" fill="white" fill-opacity="0.042" transform="rotate(-7,410,524)" font-family="monospace">+</text>
<text x="234" y="38" font-size="8" fill="white" fill-opacity="0.077" transform="rotate(11,234,38)" font-family="monospace">*</text>
<text x="348" y="159" font-size="7" fill="white" fill-opacity="0.032" transform="rotate(14,348,159)" font-family="monospace">~</text>
<text x="147" y="787" font-size="11" fill="white" fill-opacity="0.053" transform="rotate(-30,147,787)" font-family="monospace">#</text>
<text x="86" y="29" font-size="8" fill="white" fill-opacity="0.041" transform="rotate(5,86,29)" font-family="monospace">-</text>
<text x="749" y="633" font-size="10" fill="white" fill-opacity="0.051" transform="rotate(-15,749,633)" font-family="monospace">=</text>
<text x="313" y="134" font-size="6" fill="white" fill-opacity="0.042" transform="rotate(20,313,134)" font-family="monospace">*</text>
<text x="642" y="478" font-size="6" fill="white" fill-opacity="0.036" transform="rotate(8,642,478)" font-family="monospace">~</text>
<text x="553" y="26" font-size="11" fill="white" fill-opacity="0.056" transform="rotate(15,553,26)" font-family="monospace">-</text>
<text x="152" y="308" font-size="9" fill="white" fill-opacity="0.03" transform="rotate(-15,152,308)" font-family="monospace">=</text>
<text x="589" y="436" font-size="7" fill="white" fill-opacity="0.063" transform="rotate(3,589,436)" font-family="monospace">+</text>
<text x="374" y="79" font-size="10" fill="white" fill-opacity="0.057" transform="rotate(5,374,79)" font-family="monospace">#</text>
<text x="25" y="409" font-size="12" fill="white" fill-opacity="0.054" transform="rotate(-6,25,409)" font-family="monospace">*</text>
<text x="387" y="269" font-size="11" fill="white" fill-opacity="0.031" transform="rotate(-8,387,269)" font-family="monospace">+</text>
<text x="251" y="760" font-size="11" fill="white" fill-opacity="0.061" transform="rotate(17,251,760)" font-family="monospace">#</text>
<line x1="360" y1="171" x2="360" y2="221" stroke="white" stroke-opacity="0.078" stroke-width="1"/>
<rect x="357" y="186" width="6" height="20" fill="white" fill-opacity="0.078"/>
<line x1="678" y1="189" x2="678" y2="289" stroke="white" stroke-opacity="0.088" stroke-width="1"/>
<rect x="673" y="204" width="10" height="71" fill="white" fill-opacity="0.088"/>
<line x1="732" y1="506" x2="732" y2="594" stroke="white" stroke-opacity="0.097" stroke-width="1"/>
<rect x="730" y="521" width="5" height="58" fill="white" fill-opacity="0.097"/>
<line x1="84" y1="503" x2="84" y2="553" stroke="white" stroke-opacity="0.054" stroke-width="1"/>
<rect x="81" y="518" width="6" height="20" fill="white" fill-opacity="0.054"/>
<line x1="224" y1="68" x2="224" y2="136" stroke="white" stroke-opacity="0.076" stroke-width="1"/>
<rect x="221" y="83" width="6" height="38" fill="white" fill-opacity="0.076"/>
<line x1="576" y1="512" x2="576" y2="576" stroke="white" stroke-opacity="0.093" stroke-width="1"/>
<rect x="574" y="527" width="4" height="34" fill="white" fill-opacity="0.093"/>
<line x1="215" y1="317" x2="215" y2="387" stroke="white" stroke-opacity="0.095" stroke-width="1"/>
<rect x="210" y="332" width="10" height="40" fill="white" fill-opacity="0.095"/>
<line x1="691" y1="367" x2="691" y2="431" stroke="white" stroke-opacity="0.096" stroke-width="1"/>
<rect x="689" y="382" width="4" height="35" fill="white" fill-opacity="0.096"/>
<line x1="467" y1="422" x2="467" y2="516" stroke="white" stroke-opacity="0.103" stroke-width="1"/>
<rect x="464" y="437" width="7" height="65" fill="white" fill-opacity="0.103"/>
<line x1="415" y1="378" x2="415" y2="436" stroke="white" stroke-opacity="0.088" stroke-width="1"/>
<rect x="412" y="393" width="7" height="29" fill="white" fill-opacity="0.088"/>
<line x1="396" y1="559" x2="396" y2="623" stroke="white" stroke-opacity="0.046" stroke-width="1"/>
<rect x="391" y="574" width="10" height="35" fill="white" fill-opacity="0.046"/>
<line x1="454" y1="103" x2="454" y2="177" stroke="white" stroke-opacity="0.11" stroke-width="1"/>
<rect x="450" y="118" width="8" height="45" fill="white" fill-opacity="0.11"/>
<line x1="204" y1="585" x2="204" y2="651" stroke="white" stroke-opacity="0.047" stroke-width="1"/>
<rect x="201" y="600" width="6" height="36" fill="white" fill-opacity="0.047"/>
<line x1="355" y1="703" x2="355" y2="769" stroke="white" stroke-opacity="0.071" stroke-width="1"/>
<rect x="352" y="718" width="6" height="36" fill="white" fill-opacity="0.071"/>
<line x1="754" y1="467" x2="754" y2="525" stroke="white" stroke-opacity="0.071" stroke-width="1"/>
<rect x="750" y="482" width="9" height="28" fill="white" fill-opacity="0.071"/>
<line x1="477" y1="56" x2="477" y2="150" stroke="white" stroke-opacity="0.104" stroke-width="1"/>
<rect x="472" y="71" width="10" height="64" fill="white" fill-opacity="0.104"/>
<line x1="649" y1="473" x2="649" y2="537" stroke="white" stroke-opacity="0.109" stroke-width="1"/>
<rect x="645" y="488" width="9" height="35" fill="white" fill-opacity="0.109"/>
<line x1="78" y1="91" x2="78" y2="181" stroke="white" stroke-opacity="0.068" stroke-width="1"/>
<rect x="74" y="106" width="9" height="60" fill="white" fill-opacity="0.068"/>
<line x1="545" y1="199" x2="545" y2="247" stroke="white" stroke-opacity="0.099" stroke-width="1"/>
<rect x="543" y="214" width="5" height="19" fill="white" fill-opacity="0.099"/>
<line x1="714" y1="483" x2="714" y2="533" stroke="white" stroke-opacity="0.045" stroke-width="1"/>
<rect x="712" y="498" width="5" height="20" fill="white" fill-opacity="0.045"/>
<line x1="680" y1="400" x2="680" y2="470" stroke="white" stroke-opacity="0.106" stroke-width="1"/>
<rect x="677" y="415" width="7" height="41" fill="white" fill-opacity="0.106"/>
<line x1="53" y1="651" x2="53" y2="707" stroke="white" stroke-opacity="0.071" stroke-width="1"/>
<rect x="49" y="666" width="9" height="27" fill="white" fill-opacity="0.071"/>
<line x1="399" y1="402" x2="399" y2="478" stroke="white" stroke-opacity="0.045" stroke-width="1"/>
<rect x="394" y="417" width="10" height="46" fill="white" fill-opacity="0.045"/>
<line x1="160" y1="567" x2="160" y2="637" stroke="white" stroke-opacity="0.062" stroke-width="1"/>
<rect x="157" y="582" width="7" height="41" fill="white" fill-opacity="0.062"/>
<line x1="305" y1="288" x2="305" y2="342" stroke="white" stroke-opacity="0.091" stroke-width="1"/>
<rect x="303" y="303" width="4" height="25" fill="white" fill-opacity="0.091"/>
<polygon points="541,548 535,560 547,560" fill="white" fill-opacity="0.095"/>
<polygon points="298,309 292,296 304,296" fill="white" fill-opacity="0.053"/>
<polygon points="740,523 736,532 744,532" fill="white" fill-opacity="0.047"/>
<polygon points="492,219 486,206 498,206" fill="white" fill-opacity="0.1"/>
<polygon points="713,392 710,385 716,385" fill="white" fill-opacity="0.073"/>
<polygon points="337,207 329,191 345,191" fill="white" fill-opacity="0.05"/>
<polygon points="550,252 547,259 553,259" fill="white" fill-opacity="0.099"/>
<polygon points="272,541 269,535 275,535" fill="white" fill-opacity="0.062"/>
<polygon points="508,586 504,594 512,594" fill="white" fill-opacity="0.077"/>
<polygon points="97,358 91,346 103,346" fill="white" fill-opacity="0.1"/>
<polygon points="568,438 562,450 574,450" fill="white" fill-opacity="0.089"/>
<polygon points="158,370 150,354 166,354" fill="white" fill-opacity="0.044"/>
<polygon points="726,548 721,559 731,559" fill="white" fill-opacity="0.048"/>
<polygon points="162,459 155,473 169,473" fill="white" fill-opacity="0.095"/>
<polygon points="157,552 153,560 161,560" fill="white" fill-opacity="0.058"/>
<circle cx="340" cy="736" r="1.4509405694309334" fill="white" fill-opacity="0.097"/>
<circle cx="541" cy="300" r="2.691867412311731" fill="white" fill-opacity="0.055"/>
<circle cx="660" cy="574" r="1.5489020664270265" fill="white" fill-opacity="0.078"/>
<circle cx="639" cy="556" r="1.186856813767152" fill="white" fill-opacity="0.078"/>
<circle cx="616" cy="604" r="1.3083885337591263" fill="white" fill-opacity="0.08"/>
<circle cx="747" cy="629" r="1.6752391732116043" fill="white" fill-opacity="0.095"/>
<circle cx="52" cy="39" r="1.1624457097867398" fill="white" fill-opacity="0.097"/>
<circle cx="600" cy="281" r="2.3022599549711997" fill="white" fill-opacity="0.086"/>
<circle cx="436" cy="642" r="2.277982384417741" fill="white" fill-opacity="0.07"/>
<circle cx="652" cy="568" r="1.5793433136032116" fill="white" fill-opacity="0.097"/>
<circle cx="504" cy="260" r="2.6093763084314663" fill="white" fill-opacity="0.081"/>
<circle cx="314" cy="474" r="1.1459460510106916" fill="white" fill-opacity="0.044"/>
<circle cx="460" cy="435" r="1.9685022602147184" fill="white" fill-opacity="0.052"/>
<circle cx="631" cy="157" r="1.625164998493866" fill="white" fill-opacity="0.083"/>
<circle cx="761" cy="363" r="2.9507482558297604" fill="white" fill-opacity="0.048"/>
<circle cx="389" cy="537" r="2.1233024314967386" fill="white" fill-opacity="0.059"/>
<circle cx="487" cy="135" r="1.5349433489083648" fill="white" fill-opacity="0.055"/>
<circle cx="109" cy="61" r="1.580424009939803" fill="white" fill-opacity="0.063"/>
<circle cx="640" cy="438" r="1.4965405607623732" fill="white" fill-opacity="0.092"/>
<circle cx="173" cy="345" r="2.8675030704988096" fill="white" fill-opacity="0.083"/>
<circle cx="204" cy="173" r="1.9965310841198176" fill="white" fill-opacity="0.071"/>
<circle cx="520" cy="325" r="1.994740546095018" fill="white" fill-opacity="0.045"/>
<circle cx="412" cy="527" r="1.9144612843794617" fill="white" fill-opacity="0.054"/>
<circle cx="607" cy="371" r="1.0973162658593119" fill="white" fill-opacity="0.057"/>
<circle cx="621" cy="679" r="2.3450412075308984" fill="white" fill-opacity="0.057"/>
<circle cx="18" cy="120" r="1.861855538695081" fill="white" fill-opacity="0.093"/>
<circle cx="754" cy="384" r="2.527713528323979" fill="white" fill-opacity="0.062"/>
<circle cx="420" cy="62" r="2.140563287762059" fill="white" fill-opacity="0.052"/>
<circle cx="576" cy="305" r="1.1470634994856836" fill="white" fill-opacity="0.07"/>
<circle cx="573" cy="296" r="2.6506226359172267" fill="white" fill-opacity="0.077"/>
<rect x="171" y="266" width="8" height="65" fill="white" fill-opacity="0.079" rx="2"/>
<rect x="182" y="281" width="8" height="50" fill="white" fill-opacity="0.079" rx="2"/>
<rect x="193" y="268" width="8" height="63" fill="white" fill-opacity="0.079" rx="2"/>
<rect x="201" y="304" width="7" height="27" fill="white" fill-opacity="0.079" rx="2"/>
<rect x="223" y="284" width="10" height="47" fill="white" fill-opacity="0.079" rx="2"/>
<rect x="231" y="284" width="9" height="47" fill="white" fill-opacity="0.079" rx="2"/>
<rect x="91" y="198" width="9" height="48" fill="white" fill-opacity="0.032" rx="2"/>
<rect x="103" y="222" width="9" height="24" fill="white" fill-opacity="0.032" rx="2"/>
<rect x="117" y="199" width="10" height="47" fill="white" fill-opacity="0.032" rx="2"/>
<rect x="121" y="211" width="7" height="35" fill="white" fill-opacity="0.032" rx="2"/>
<rect x="143" y="211" width="10" height="35" fill="white" fill-opacity="0.032" rx="2"/>
<rect x="216" y="566" width="10" height="36" fill="white" fill-opacity="0.08" rx="2"/>
<rect x="229" y="534" width="10" height="68" fill="white" fill-opacity="0.08" rx="2"/>
<rect x="242" y="553" width="10" height="49" fill="white" fill-opacity="0.08" rx="2"/>
<rect x="252" y="542" width="9" height="60" fill="white" fill-opacity="0.08" rx="2"/>
<rect x="268" y="568" width="10" height="34" fill="white" fill-opacity="0.08" rx="2"/>
<rect x="536" y="165" width="9" height="52" fill="white" fill-opacity="0.048" rx="2"/>
<rect x="547" y="152" width="8" height="65" fill="white" fill-opacity="0.048" rx="2"/>
<rect x="554" y="164" width="6" height="53" fill="white" fill-opacity="0.048" rx="2"/>
<circle cx="565" cy="351" r="22" fill="none" stroke="white" stroke-opacity="0.061" stroke-width="1"/>
<path d="M 565,351 L 568.6,329.3 A 22,22 0 0 1 585.5,359.1 Z" fill="white" fill-opacity="0.061"/>
<circle cx="132" cy="677" r="19" fill="none" stroke="white" stroke-opacity="0.037" stroke-width="1"/>
<path d="M 132,677 L 118.9,663.2 A 19,19 0 0 1 148.9,668.3 Z" fill="white" fill-opacity="0.037"/>
<circle cx="469" cy="231" r="25" fill="none" stroke="white" stroke-opacity="0.057" stroke-width="1"/>
<path d="M 469,231 L 493.5,235.9 A 25,25 0 0 1 447.4,243.7 Z" fill="white" fill-opacity="0.057"/>
</svg>